<svg xmlns="http://www.w3.org/2000/svg" viewBox="0 0 512 512" width="100%" height="100%">
  <rect width="512" height="512" rx="110" fill="#1A365D" />

  <g transform="rotate(-20 256 256)">

    <path d="M380,180 Q420,256 380,332" fill="none" stroke="#2ECC71" stroke-width="16" stroke-linecap="round" />
    <path d="M420,140 Q470,256 420,372" fill="none" stroke="#2ECC71" stroke-width="16" stroke-linecap="round" />
    <path d="M460,100 Q520,256 460,412" fill="none" stroke="#2ECC71" stroke-width="16" stroke-linecap="round" />

    <polygon points="170,210 330,140 330,372 170,302" fill="#E74C3C" />

    <path d="M330,140 C360,140 360,372 330,372 Z" fill="#C0392B" />
    <ellipse cx="340" cy="256" rx="8" ry="30" fill="#1A365D" />

    <path d="M140,210 H170 V302 H140 C130,302 120,292 120,282 V230 C120,220 130,210 140,210 Z" fill="#C0392B" />

    <path d="M200,302 L220,380 C222,390 215,400 205,400 L185,400 C175,400 168,390 170,380 L185,302 Z" fill="#C0392B" />

  </g>

  <circle cx="410" cy="110" r="40" fill="#E74C3C" stroke="#1A365D" stroke-width="8" />
  <rect x="403" y="85" width="14" height="26" rx="6" fill="#FFFFFF" />
  <circle cx="410" cy="128" r="7" fill="#FFFFFF" />

</svg>
